<?xml version="1.0" encoding="UTF-8"?>
<svg width="100px" height="100px" viewBox="0 0 100 100" version="1.1" xmlns="http://www.w3.org/2000/svg">
    <title>kompas</title>
    <g id="ICON" stroke="none" stroke-width="1" fill="none" fill-rule="evenodd">
        <g id="kompass" transform="translate(12.000000, 12.000000)">
            <g id="Group-2" transform="translate(2.825342, 29.892857)">
                <g id="Group" transform="translate(7.448630, 6.428571) rotate(90.000000) translate(-7.448630, -6.428571) translate(1.027397, 0.000000)"></g>
            </g>
            <g id="blades" transform="translate(38.000000, 38.500000) rotate(27.000000) translate(-38.000000, -38.500000) translate(33.000000, 23.000000)">
                <path d="M5.55384615,19.3360879 L9.46764328,28.729201 C9.59509361,29.0350818 9.45044714,29.3863661 9.14456636,29.5138164 C9.00393812,29.5724115 8.84628609,29.5753173 8.7035941,29.5219442 L5.21020303,28.2152619 C5.07465366,28.1645604 4.92534634,28.1645604 4.78979697,28.2152619 L1.2964059,29.5219442 C0.98603627,29.6380361 0.640320875,29.4805429 0.524228949,29.1701733 C0.470855857,29.0274813 0.473761615,28.8698293 0.532356717,28.729201 L4.44615385,19.3360879 C4.57360417,19.0302071 4.92488845,18.8855607 5.23076923,19.013011 C5.37685552,19.0738803 5.49297687,19.1900016 5.55384615,19.3360879 Z" id="Triangle-Copy-4" fill="#9F4340" transform="translate(5.000000, 24.006857) scale(1, -1) translate(-5.000000, -24.006857) "></path>
                <ellipse id="Oval" stroke="#8B9678" stroke-width="0.6" fill="#8B9678" cx="5" cy="15.0034286" rx="2.7" ry="2.70342857"></ellipse>
                <path d="M5.55384615,1.32923077 L9.46764328,10.7223439 C9.59509361,11.0282247 9.45044714,11.3795089 9.14456636,11.5069593 C9.00393812,11.5655544 8.84628609,11.5684601 8.7035941,11.515087 L5.21020303,10.2084047 C5.07465366,10.1577033 4.92534634,10.1577033 4.78979697,10.2084047 L1.2964059,11.515087 C0.98603627,11.631179 0.640320875,11.4736858 0.524228949,11.1633161 C0.470855857,11.0206242 0.473761615,10.8629721 0.532356717,10.7223439 L4.44615385,1.32923077 C4.57360417,1.02334998 4.92488845,0.878703519 5.23076923,1.00615385 C5.37685552,1.06702313 5.49297687,1.18314448 5.55384615,1.32923077 Z" id="Triangle" fill="#9F4340"></path>
            </g>
        </g>
    </g>
</svg>