<?xml version="1.0" encoding="UTF-8"?>
<svg width="100px" height="100px" viewBox="0 0 100 100" version="1.1" xmlns="http://www.w3.org/2000/svg">
    <title>kompas</title>
    <g id="ICON" stroke="none" stroke-width="1" fill="none" fill-rule="evenodd">
        <rect id="Rectangle" x="0" y="0" width="100" height="100"></rect>
        <g id="kompass" transform="translate(12.000000, 12.000000)">
            <g id="Group-3">
                <circle id="Oval" stroke="#8B9678" stroke-width="3" fill="#C6C7BC" cx="38" cy="38" r="19.5"></circle>
                <path d="M8.5496944,31.2564443 L14.4954818,44.8468156 C14.6283015,45.1504035 14.4898666,45.5041817 14.1862787,45.6370013 C14.0602467,45.6921403 13.9190948,45.7022963 13.7864673,45.6657679 L10.3898023,44.7302559 C8.82572013,44.2994752 7.17427987,44.2994752 5.61019767,44.7302559 L2.21353271,45.6657679 C1.89405755,45.753758 1.56374169,45.5661023 1.47575159,45.2466271 C1.43922322,45.1139996 1.44937915,44.9728477 1.50451816,44.8468156 L7.4503056,31.2564443 C7.58312528,30.9528565 7.93690347,30.8144216 8.2404913,30.9472412 C8.37878448,31.0077445 8.48919113,31.1181512 8.5496944,31.2564443 Z" id="Triangle-Copy-3" fill="#8B9678" transform="translate(8.000000, 38.000000) scale(-1, 1) rotate(90.000000) translate(-8.000000, -38.000000) "></path>
                <path d="M68.5496944,31.2564443 L74.4437657,44.7286073 C74.5765854,45.0321951 74.4381504,45.3859733 74.1345626,45.518793 C73.9946271,45.5800147 73.8366106,45.5855629 73.6927259,45.5343065 L71.0201813,44.5822594 C69.066847,43.8864183 66.933153,43.8864183 64.9798187,44.5822594 L62.3072741,45.5343065 C61.9951184,45.6455065 61.6519208,45.4825997 61.5407208,45.170444 C61.4894644,45.0265592 61.4950126,44.8685427 61.5562343,44.7286073 L67.4503056,31.2564443 C67.5831253,30.9528565 67.9369035,30.8144216 68.2404913,30.9472412 C68.3787845,31.0077445 68.4891911,31.1181512 68.5496944,31.2564443 Z" id="Triangle-Copy-2" fill="#8B9678" transform="translate(68.000000, 38.000000) scale(1, -1) rotate(90.000000) translate(-68.000000, -38.000000) "></path>
                <path d="M38.5496944,1.25644435 L44.4437657,14.7286073 C44.5765854,15.0321951 44.4381504,15.3859733 44.1345626,15.518793 C43.9946271,15.5800147 43.8366106,15.5855629 43.6927259,15.5343065 L41.0201813,14.5822594 C39.066847,13.8864183 36.933153,13.8864183 34.9798187,14.5822594 L32.3072741,15.5343065 C31.9951184,15.6455065 31.6519208,15.4825997 31.5407208,15.170444 C31.4894644,15.0265592 31.4950126,14.8685427 31.5562343,14.7286073 L37.4503056,1.25644435 C37.5831253,0.95285651 37.9369035,0.814421567 38.2404913,0.947241244 C38.3787845,1.00774451 38.4891911,1.11815116 38.5496944,1.25644435 Z" id="Triangle" fill="#8B9678"></path>
                <path d="M39.0103766,61.1650926 L45.3429771,74.734951 C45.483109,75.0352336 45.3532812,75.3922602 45.0529985,75.5323921 C44.9137745,75.5973633 44.7549315,75.6064516 44.6092056,75.5577838 L41.3175917,74.4584903 C39.4672069,73.8405211 37.4661265,73.8405211 35.6157416,74.4584903 L32.3241278,75.5577838 C32.0098217,75.6627519 31.6699327,75.49305 31.5649646,75.1787439 C31.5162968,75.033018 31.525385,74.874175 31.5903562,74.734951 L37.9229568,61.1650926 C38.0630887,60.8648099 38.4201153,60.7349821 38.7203979,60.875114 C38.8481154,60.9347155 38.9507751,61.0373752 39.0103766,61.1650926 Z" id="Triangle-Copy" fill="#8B9678" transform="translate(38.466667, 68.000000) scale(1, -1) translate(-38.466667, -68.000000) "></path>
            </g>
            <g id="Group-2" transform="translate(2.825342, 29.892857)">
                <g id="Group" transform="translate(7.448630, 6.428571) rotate(90.000000) translate(-7.448630, -6.428571) translate(1.027397, 0.000000)"></g>
            </g>
        </g>
    </g>
</svg>